<?xml version="1.0" standalone="no"?>
<!DOCTYPE svg PUBLIC "-//W3C//DTD SVG 1.1//EN"
"http://www.w3.org/Graphics/SVG/1.1/DTD/svg11.dtd">

<svg width="695" height="590" view_box="0 0 695 590"
xmlns="http://www.w3.org/2000/svg"
xmlns:link="http://www.w3.org/1999/xlink">\n\n<desc>Généré par Mocodo 2.3.7 le Mon, 07 Mar 2022 07:51:43</desc>

<rect id="frame" x="0" y="0" width="695" height="590" fill="#f7f7f7" stroke="none" stroke-width="0"/>

<!-- Association TOMATOMETER_STAT -->
<line x1="320" y1="270" x2="85" y2="388" stroke="#9970ab" stroke-width="2"/>
<text x="228" y="299.065316663" fill="#1b7837" font-family="Verdana" font-size="12">1,1</text>
<line x1="85" y1="547" x2="85" y2="388" stroke="#9970ab" stroke-width="2"/>
<text x="90.0" y="505" fill="#1b7837" font-family="Verdana" font-size="12">1,N</text>
<g id="association-TOMATOMETER_STAT">
	<path d="M 145 363 a 14 14 90 0 1 14 14 V 388 h -148 V 377 a 14 14 90 0 1 14 -14" fill="#c2a5cf" stroke="#c2a5cf" stroke-width="0"/>
	<path d="M 159 388.0 v 11 a 14 14 90 0 1 -14 14 H 25 a 14 14 90 0 1 -14 -14 V 388.0 H 148" fill="#e7d4e8" stroke="#e7d4e8" stroke-width="0"/>
	<rect x="11" y="363" width="148" height="50" fill="none" rx="14" stroke="#9970ab" stroke-width="2"/>
	<line x1="11" y1="388" x2="159" y2="388" stroke="#9970ab" stroke-width="1"/>
	<text x="18" y="380.7" fill="#000000" font-family="Verdana" font-size="12">TOMATOMETER_STAT</text>
</g>

<!-- Association DATE_SALLE -->
<line x1="320" y1="270" x2="193" y2="463" stroke="#9970ab" stroke-width="2"/>
<text x="258.752072783" y="380" fill="#1b7837" font-family="Verdana" font-size="12">1,1</text>
<line x1="320" y1="547" x2="193" y2="463" stroke="#9970ab" stroke-width="2"/>
<text x="248" y="529.162071852" fill="#1b7837" font-family="Verdana" font-size="12">0,N</text>
<g id="association-DATE_SALLE">
	<path d="M 225 438 a 14 14 90 0 1 14 14 V 463 h -92 V 452 a 14 14 90 0 1 14 -14" fill="#c2a5cf" stroke="#c2a5cf" stroke-width="0"/>
	<path d="M 239 463.0 v 11 a 14 14 90 0 1 -14 14 H 161 a 14 14 90 0 1 -14 -14 V 463.0 H 92" fill="#e7d4e8" stroke="#e7d4e8" stroke-width="0"/>
	<rect x="147" y="438" width="92" height="50" fill="none" rx="14" stroke="#9970ab" stroke-width="2"/>
	<line x1="147" y1="463" x2="239" y2="463" stroke="#9970ab" stroke-width="1"/>
	<text x="154" y="455.7" fill="#000000" font-family="Verdana" font-size="12">DATE_SALLE</text>
</g>

<!-- Association CONTENT_RATING -->
<line x1="320" y1="270" x2="482" y2="270" stroke="#9970ab" stroke-width="2"/>
<text x="391" y="287.0" fill="#1b7837" font-family="Verdana" font-size="12">1,1</text>
<line x1="620" y1="270" x2="482" y2="270" stroke="#9970ab" stroke-width="2"/>
<text x="551" y="287.0" fill="#1b7837" font-family="Verdana" font-size="12">1,N</text>
<g id="association-CONTENT_RATING">
	<path d="M 532 245 a 14 14 90 0 1 14 14 V 270 h -128 V 259 a 14 14 90 0 1 14 -14" fill="#c2a5cf" stroke="#c2a5cf" stroke-width="0"/>
	<path d="M 546 270.0 v 11 a 14 14 90 0 1 -14 14 H 432 a 14 14 90 0 1 -14 -14 V 270.0 H 128" fill="#e7d4e8" stroke="#e7d4e8" stroke-width="0"/>
	<rect x="418" y="245" width="128" height="50" fill="none" rx="14" stroke="#9970ab" stroke-width="2"/>
	<line x1="418" y1="270" x2="546" y2="270" stroke="#9970ab" stroke-width="1"/>
	<text x="425" y="262.7" fill="#000000" font-family="Verdana" font-size="12">CONTENT_RATING</text>
</g>

<!-- Association ACTEUR -->
<line x1="320" y1="270" x2="482" y2="127" stroke="#9970ab" stroke-width="2"/>
<text x="391" y="222.291480369" fill="#1b7837" font-family="Verdana" font-size="12">0,N</text>
<line x1="482" y1="43" x2="482" y2="127" stroke="#9970ab" stroke-width="2"/>
<text x="487.0" y="94" fill="#1b7837" font-family="Verdana" font-size="12">0,N</text>
<g id="association-ACTEUR">
	<path d="M 500 102 a 14 14 90 0 1 14 14 V 127 h -64 V 116 a 14 14 90 0 1 14 -14" fill="#c2a5cf" stroke="#c2a5cf" stroke-width="0"/>
	<path d="M 514 127.0 v 11 a 14 14 90 0 1 -14 14 H 464 a 14 14 90 0 1 -14 -14 V 127.0 H 64" fill="#e7d4e8" stroke="#e7d4e8" stroke-width="0"/>
	<rect x="450" y="102" width="64" height="50" fill="none" rx="14" stroke="#9970ab" stroke-width="2"/>
	<line x1="450" y1="127" x2="514" y2="127" stroke="#9970ab" stroke-width="1"/>
	<text x="457" y="119.7" fill="#000000" font-family="Verdana" font-size="12">ACTEUR</text>
</g>

<!-- Association REALISATEUR -->
<line x1="320" y1="270" x2="620" y2="127" stroke="#9970ab" stroke-width="2"/>
<text x="391" y="251.809408619" fill="#1b7837" font-family="Verdana" font-size="12">0,N</text>
<line x1="482" y1="43" x2="620" y2="127" stroke="#9970ab" stroke-width="2"/>
<text x="515.564649732" y="94" fill="#1b7837" font-family="Verdana" font-size="12">0,N</text>
<g id="association-REALISATEUR">
	<path d="M 656 102 a 14 14 90 0 1 14 14 V 127 h -100 V 116 a 14 14 90 0 1 14 -14" fill="#c2a5cf" stroke="#c2a5cf" stroke-width="0"/>
	<path d="M 670 127.0 v 11 a 14 14 90 0 1 -14 14 H 584 a 14 14 90 0 1 -14 -14 V 127.0 H 100" fill="#e7d4e8" stroke="#e7d4e8" stroke-width="0"/>
	<rect x="570" y="102" width="100" height="50" fill="none" rx="14" stroke="#9970ab" stroke-width="2"/>
	<line x1="570" y1="127" x2="670" y2="127" stroke="#9970ab" stroke-width="1"/>
	<text x="577" y="119.7" fill="#000000" font-family="Verdana" font-size="12">REALISATEUR</text>
</g>

<!-- Association DATE_STREAMING -->
<line x1="320" y1="270" x2="482" y2="463" stroke="#9970ab" stroke-width="2"/>
<text x="391" y="346.830709046" fill="#1b7837" font-family="Verdana" font-size="12">1,1</text>
<line x1="320" y1="547" x2="482" y2="463" stroke="#9970ab" stroke-width="2"/>
<text x="370" y="536.618076289" fill="#1b7837" font-family="Verdana" font-size="12">0,N</text>
<g id="association-DATE_STREAMING">
	<path d="M 532 438 a 14 14 90 0 1 14 14 V 463 h -128 V 452 a 14 14 90 0 1 14 -14" fill="#c2a5cf" stroke="#c2a5cf" stroke-width="0"/>
	<path d="M 546 463.0 v 11 a 14 14 90 0 1 -14 14 H 432 a 14 14 90 0 1 -14 -14 V 463.0 H 128" fill="#e7d4e8" stroke="#e7d4e8" stroke-width="0"/>
	<rect x="418" y="438" width="128" height="50" fill="none" rx="14" stroke="#9970ab" stroke-width="2"/>
	<line x1="418" y1="463" x2="546" y2="463" stroke="#9970ab" stroke-width="1"/>
	<text x="425" y="455.7" fill="#000000" font-family="Verdana" font-size="12">DATE_STREAMING</text>
</g>

<!-- Association AUTEUR -->
<line x1="320" y1="270" x2="320" y2="127" stroke="#9970ab" stroke-width="2"/>
<text x="325.0" y="169" fill="#1b7837" font-family="Verdana" font-size="12">0,N</text>
<line x1="482" y1="43" x2="320" y2="127" stroke="#9970ab" stroke-width="2"/>
<text x="395" y="70.1597014891" fill="#1b7837" font-family="Verdana" font-size="12">0,N</text>
<g id="association-AUTEUR">
	<path d="M 338 102 a 14 14 90 0 1 14 14 V 127 h -64 V 116 a 14 14 90 0 1 14 -14" fill="#c2a5cf" stroke="#c2a5cf" stroke-width="0"/>
	<path d="M 352 127.0 v 11 a 14 14 90 0 1 -14 14 H 302 a 14 14 90 0 1 -14 -14 V 127.0 H 64" fill="#e7d4e8" stroke="#e7d4e8" stroke-width="0"/>
	<rect x="288" y="102" width="64" height="50" fill="none" rx="14" stroke="#9970ab" stroke-width="2"/>
	<line x1="288" y1="127" x2="352" y2="127" stroke="#9970ab" stroke-width="1"/>
	<text x="295" y="119.7" fill="#000000" font-family="Verdana" font-size="12">AUTEUR</text>
</g>

<!-- Association AUDIENCE_STAT -->
<line x1="320" y1="270" x2="620" y2="388" stroke="#9970ab" stroke-width="2"/>
<text x="391" y="291.038965388" fill="#1b7837" font-family="Verdana" font-size="12">1,1</text>
<line x1="620" y1="547" x2="620" y2="388" stroke="#9970ab" stroke-width="2"/>
<text x="625.0" y="505" fill="#1b7837" font-family="Verdana" font-size="12">1,N</text>
<g id="association-AUDIENCE_STAT">
	<path d="M 665 363 a 14 14 90 0 1 14 14 V 388 h -118 V 377 a 14 14 90 0 1 14 -14" fill="#c2a5cf" stroke="#c2a5cf" stroke-width="0"/>
	<path d="M 679 388.0 v 11 a 14 14 90 0 1 -14 14 H 575 a 14 14 90 0 1 -14 -14 V 388.0 H 118" fill="#e7d4e8" stroke="#e7d4e8" stroke-width="0"/>
	<rect x="561" y="363" width="118" height="50" fill="none" rx="14" stroke="#9970ab" stroke-width="2"/>
	<line x1="561" y1="388" x2="679" y2="388" stroke="#9970ab" stroke-width="1"/>
	<text x="568" y="380.7" fill="#000000" font-family="Verdana" font-size="12">AUDIENCE_STAT</text>
</g>

<!-- Association GENRE -->
<line x1="320" y1="270" x2="193" y2="270" stroke="#9970ab" stroke-width="2"/>
<text x="227" y="287.0" fill="#1b7837" font-family="Verdana" font-size="12">0,N</text>
<line x1="85" y1="270" x2="193" y2="270" stroke="#9970ab" stroke-width="2"/>
<text x="131" y="287.0" fill="#1b7837" font-family="Verdana" font-size="12">1,N</text>
<g id="association-GENRE">
	<path d="M 208 245 a 14 14 90 0 1 14 14 V 270 h -58 V 259 a 14 14 90 0 1 14 -14" fill="#c2a5cf" stroke="#c2a5cf" stroke-width="0"/>
	<path d="M 222 270.0 v 11 a 14 14 90 0 1 -14 14 H 178 a 14 14 90 0 1 -14 -14 V 270.0 H 58" fill="#e7d4e8" stroke="#e7d4e8" stroke-width="0"/>
	<rect x="164" y="245" width="58" height="50" fill="none" rx="14" stroke="#9970ab" stroke-width="2"/>
	<line x1="164" y1="270" x2="222" y2="270" stroke="#9970ab" stroke-width="1"/>
	<text x="171" y="262.7" fill="#000000" font-family="Verdana" font-size="12">GENRE</text>
</g>

<!-- Association PRODUCTEUR -->
<line x1="320" y1="270" x2="193" y2="127" stroke="#9970ab" stroke-width="2"/>
<text x="228" y="206.20558853" fill="#1b7837" font-family="Verdana" font-size="12">0,1</text>
<line x1="85" y1="43" x2="193" y2="127" stroke="#9970ab" stroke-width="2"/>
<text x="107.544950263" y="94" fill="#1b7837" font-family="Verdana" font-size="12">1,N</text>
<g id="association-PRODUCTEUR">
	<path d="M 229 102 a 14 14 90 0 1 14 14 V 127 h -100 V 116 a 14 14 90 0 1 14 -14" fill="#c2a5cf" stroke="#c2a5cf" stroke-width="0"/>
	<path d="M 243 127.0 v 11 a 14 14 90 0 1 -14 14 H 157 a 14 14 90 0 1 -14 -14 V 127.0 H 100" fill="#e7d4e8" stroke="#e7d4e8" stroke-width="0"/>
	<rect x="143" y="102" width="100" height="50" fill="none" rx="14" stroke="#9970ab" stroke-width="2"/>
	<line x1="143" y1="127" x2="243" y2="127" stroke="#9970ab" stroke-width="1"/>
	<text x="150" y="119.7" fill="#000000" font-family="Verdana" font-size="12">PRODUCTEUR</text>
</g>

<!-- Entity RATINGS -->
<g id="entity-RATINGS">
	<g id="frame-RATINGS">
		<rect x="578" y="236" width="84" height="25" fill="#a6dba0" stroke="#a6dba0" stroke-width="0"/>
		<rect x="578" y="261.0" width="84" height="43" fill="#d9f0d3" stroke="#d9f0d3" stroke-width="0"/>
		<rect x="578" y="236" width="84" height="68" fill="none" stroke="#5aae61" stroke-width="2"/>
		<line x1="578" y1="261" x2="662" y2="261" stroke="#5aae61" stroke-width="1"/>
	</g>
	<text x="591" y="253.7" fill="#000000" font-family="Verdana" font-size="12">RATINGS</text>
	<text x="583" y="278.8" fill="#000000" font-family="Verdana" font-size="12">id_rating</text>
	<line x1="583" y1="281" x2="638" y2="281" stroke="#000000" stroke-width="1"/>
	<text x="583" y="295.8" fill="#000000" font-family="Verdana" font-size="12">label_rating</text>
</g>

<!-- Entity GENRES -->
<g id="entity-GENRES">
	<g id="frame-GENRES">
		<rect x="44" y="236" width="82" height="25" fill="#a6dba0" stroke="#a6dba0" stroke-width="0"/>
		<rect x="44" y="261.0" width="82" height="43" fill="#d9f0d3" stroke="#d9f0d3" stroke-width="0"/>
		<rect x="44" y="236" width="82" height="68" fill="none" stroke="#5aae61" stroke-width="2"/>
		<line x1="44" y1="261" x2="126" y2="261" stroke="#5aae61" stroke-width="1"/>
	</g>
	<text x="59" y="253.7" fill="#000000" font-family="Verdana" font-size="12">GENRES</text>
	<text x="49" y="278.8" fill="#000000" font-family="Verdana" font-size="12">id_genre</text>
	<line x1="49" y1="281" x2="103" y2="281" stroke="#000000" stroke-width="1"/>
	<text x="49" y="295.8" fill="#000000" font-family="Verdana" font-size="12">label_genre</text>
</g>

<!-- Entity CALENDRIER -->
<g id="entity-CALENDRIER">
	<g id="frame-CALENDRIER">
		<rect x="275" y="513" width="90" height="25" fill="#a6dba0" stroke="#a6dba0" stroke-width="0"/>
		<rect x="275" y="538.0" width="90" height="43" fill="#d9f0d3" stroke="#d9f0d3" stroke-width="0"/>
		<rect x="275" y="513" width="90" height="68" fill="none" stroke="#5aae61" stroke-width="2"/>
		<line x1="275" y1="538" x2="365" y2="538" stroke="#5aae61" stroke-width="1"/>
	</g>
	<text x="280" y="530.7" fill="#000000" font-family="Verdana" font-size="12">CALENDRIER</text>
	<text x="280" y="555.8" fill="#000000" font-family="Verdana" font-size="12">id_cal</text>
	<line x1="280" y1="558" x2="316" y2="558" stroke="#000000" stroke-width="1"/>
	<text x="280" y="572.8" fill="#000000" font-family="Verdana" font-size="12">date_cal</text>
</g>

<!-- Entity FILMS -->
<g id="entity-FILMS">
	<g id="frame-FILMS">
		<rect x="254" y="177" width="132" height="25" fill="#a6dba0" stroke="#a6dba0" stroke-width="0"/>
		<rect x="254" y="202.0" width="132" height="161" fill="#d9f0d3" stroke="#d9f0d3" stroke-width="0"/>
		<rect x="254" y="177" width="132" height="186" fill="none" stroke="#5aae61" stroke-width="2"/>
		<line x1="254" y1="202" x2="386" y2="202" stroke="#5aae61" stroke-width="1"/>
	</g>
	<text x="301" y="194.7" fill="#000000" font-family="Verdana" font-size="12">FILMS</text>
	<text x="259" y="219.7" fill="#000000" font-family="Verdana" font-size="12">id_film</text>
	<line x1="259" y1="222" x2="301" y2="222" stroke="#000000" stroke-width="1"/>
	<text x="259" y="236.7" fill="#000000" font-family="Verdana" font-size="12">titre</text>
	<text x="259" y="253.7" fill="#000000" font-family="Verdana" font-size="12">url</text>
	<text x="259" y="270.8" fill="#000000" font-family="Verdana" font-size="12">info</text>
	<text x="259" y="287.8" fill="#000000" font-family="Verdana" font-size="12">critique</text>
	<text x="259" y="304.8" fill="#000000" font-family="Verdana" font-size="12">durée</text>
	<text x="259" y="321.8" fill="#000000" font-family="Verdana" font-size="12">tomatometer_count</text>
	<text x="259" y="338.8" fill="#000000" font-family="Verdana" font-size="12">audience_rating</text>
	<text x="259" y="355.8" fill="#000000" font-family="Verdana" font-size="12">audience_count</text>
</g>

<!-- Entity TOMATOMETER_STATS -->
<g id="entity-TOMATOMETER_STATS">
	<g id="frame-TOMATOMETER_STATS">
		<rect x="9" y="513" width="152" height="25" fill="#a6dba0" stroke="#a6dba0" stroke-width="0"/>
		<rect x="9" y="538.0" width="152" height="43" fill="#d9f0d3" stroke="#d9f0d3" stroke-width="0"/>
		<rect x="9" y="513" width="152" height="68" fill="none" stroke="#5aae61" stroke-width="2"/>
		<line x1="9" y1="538" x2="161" y2="538" stroke="#5aae61" stroke-width="1"/>
	</g>
	<text x="14" y="530.7" fill="#000000" font-family="Verdana" font-size="12">TOMATOMETER_STATS</text>
	<text x="14" y="555.8" fill="#000000" font-family="Verdana" font-size="12">id_tm_stat</text>
	<line x1="14" y1="558" x2="80" y2="558" stroke="#000000" stroke-width="1"/>
	<text x="14" y="572.8" fill="#000000" font-family="Verdana" font-size="12">label_tm_stat</text>
</g>

<!-- Entity PERSONNES -->
<g id="entity-PERSONNES">
	<g id="frame-PERSONNES">
		<rect x="422" y="9" width="120" height="25" fill="#a6dba0" stroke="#a6dba0" stroke-width="0"/>
		<rect x="422" y="34.0" width="120" height="43" fill="#d9f0d3" stroke="#d9f0d3" stroke-width="0"/>
		<rect x="422" y="9" width="120" height="68" fill="none" stroke="#5aae61" stroke-width="2"/>
		<line x1="422" y1="34" x2="542" y2="34" stroke="#5aae61" stroke-width="1"/>
	</g>
	<text x="444" y="26.7" fill="#000000" font-family="Verdana" font-size="12">PERSONNES</text>
	<text x="427" y="51.8" fill="#000000" font-family="Verdana" font-size="12">id_personne</text>
	<line x1="427" y1="54" x2="502" y2="54" stroke="#000000" stroke-width="1"/>
	<text x="427" y="68.8" fill="#000000" font-family="Verdana" font-size="12">identite_personne</text>
</g>

<!-- Entity COMPAGNIES -->
<g id="entity-COMPAGNIES">
	<g id="frame-COMPAGNIES">
		<rect x="20" y="9" width="130" height="25" fill="#a6dba0" stroke="#a6dba0" stroke-width="0"/>
		<rect x="20" y="34.0" width="130" height="43" fill="#d9f0d3" stroke="#d9f0d3" stroke-width="0"/>
		<rect x="20" y="9" width="130" height="68" fill="none" stroke="#5aae61" stroke-width="2"/>
		<line x1="20" y1="34" x2="150" y2="34" stroke="#5aae61" stroke-width="1"/>
	</g>
	<text x="43" y="26.7" fill="#000000" font-family="Verdana" font-size="12">COMPAGNIES</text>
	<text x="25" y="51.8" fill="#000000" font-family="Verdana" font-size="12">id_compagnie</text>
	<line x1="25" y1="54" x2="110" y2="54" stroke="#000000" stroke-width="1"/>
	<text x="25" y="68.8" fill="#000000" font-family="Verdana" font-size="12">identite_compagnie</text>
</g>

<!-- Entity AUDIENCE_STATS -->
<g id="entity-AUDIENCE_STATS">
	<g id="frame-AUDIENCE_STATS">
		<rect x="554" y="513" width="132" height="25" fill="#a6dba0" stroke="#a6dba0" stroke-width="0"/>
		<rect x="554" y="538.0" width="132" height="43" fill="#d9f0d3" stroke="#d9f0d3" stroke-width="0"/>
		<rect x="554" y="513" width="132" height="68" fill="none" stroke="#5aae61" stroke-width="2"/>
		<line x1="554" y1="538" x2="686" y2="538" stroke="#5aae61" stroke-width="1"/>
	</g>
	<text x="564" y="530.7" fill="#000000" font-family="Verdana" font-size="12">AUDIENCE_STATS</text>
	<text x="559" y="555.8" fill="#000000" font-family="Verdana" font-size="12">id_audience_stat</text>
	<line x1="559" y1="558" x2="663" y2="558" stroke="#000000" stroke-width="1"/>
	<text x="559" y="572.8" fill="#000000" font-family="Verdana" font-size="12">label_audience_stat</text>
</g>
</svg>